<?xml version="1.0" encoding="UTF-8"?>
<svg version="1.1" xmlns="http://www.w3.org/2000/svg" width="2400" height="2400">
<path d="M0 0 C792 0 1584 0 2400 0 C2400 792 2400 1584 2400 2400 C1608 2400 816 2400 0 2400 C0 1608 0 816 0 0 Z " fill="#FFFFFF" transform="translate(0,0)"/>
<path d="M0 0 C88.11 0 176.22 0 267 0 C265.68 8.58 264.36 17.16 263 26 C270.26 26 277.52 26 285 26 C281.95812431 44.27458119 278.91534547 62.54901171 275.87142658 80.82325268 C274.45753823 89.31170016 273.0439477 97.80019702 271.63110352 106.28881836 C270.39710804 113.70287959 269.16250776 121.11683984 267.9272334 128.53068811 C267.27551858 132.4422606 266.62407101 136.3538771 265.97335243 140.26561546 C262.71436558 159.85531961 259.39995854 179.43421884 256 199 C256.87600357 198.99333817 257.75200714 198.98667633 258.65455627 198.97981262 C267.02084763 198.91901792 275.38706196 198.87368522 283.75352573 198.84456348 C288.052009 198.82908716 292.35030571 198.80819135 296.64868164 198.77368164 C342.23403214 198.41749648 342.23403214 198.41749648 363.0859375 204.546875 C371.29525422 205.82339074 379.41118302 202.93729353 387.19921875 200.6328125 C388.39343948 200.28655823 389.58766022 199.94030396 390.81806946 199.58355713 C393.41172208 198.83151983 396.00455938 198.07712458 398.59643555 197.31903076 C405.68654312 195.24696646 412.78679054 193.20998131 419.88671875 191.171875 C420.62656887 190.95932949 421.36641899 190.74678398 422.12868881 190.5277977 C502.66014601 167.40635155 583.92279844 146.69826778 695 124 C696.71908569 123.65805603 696.71908569 123.65805603 698.47290039 123.3092041 C785.52969131 106.03743491 873.62511874 93.14139223 1103 75 C1103.76014404 74.97077454 1104.52028809 74.94154907 1105.3034668 74.91143799 C1176.14311997 72.18934099 1247.41223547 73.38764161 1317.875 81.5 C1318.76070679 81.60164459 1319.64641357 81.70328918 1320.55895996 81.80801392 C1329.69477294 82.86794354 1338.80488225 84.05214076 1347.88671875 85.5078125 C1348.61805023 85.62129028 1349.34938171 85.73476807 1350.10287476 85.85168457 C1357.05066449 87.01010664 1363.29017238 88.96170843 1368.0625 94.3125 C1370.42734312 101.09171695 1370.00225495 106.98872526 1368.625 113.875 C1368.41617188 115.01195312 1368.41617188 115.01195312 1368.203125 116.171875 C1367.16678571 121.66642857 1367.16678571 121.66642857 1366 124 C1367.299375 124.3403125 1367.299375 124.3403125 1368.625 124.6875 C1373.07003385 126.41612427 1376.59809784 128.70708347 1379.15429688 132.88793945 C1382.26956432 140.66801412 1379.1823951 150.50103945 1377.5 158.3125 C1377.22792725 159.58665771 1376.95585449 160.86081543 1376.67553711 162.17358398 C1360.7390903 235.66313656 1328.60796992 305.97459128 1295.05932617 372.88574219 C1293.07390532 376.84735236 1291.10601252 380.81748628 1289.140625 384.7890625 C1281.90874822 399.38153486 1274.54490249 413.85851836 1266.61621094 428.08837891 C1264.79573741 431.36798121 1262.99452482 434.65792943 1261.1953125 437.94921875 C1253.29868638 452.37827979 1245.21281826 466.67499851 1236.85546875 480.84375 C1234.85071029 484.25394966 1232.86164745 487.67298446 1230.875 491.09375 C1222.40168193 505.66754719 1213.71956595 520.07905697 1204.69628906 534.32177734 C1203.11272541 536.82202105 1201.53549589 539.32610966 1199.9609375 541.83203125 C1197.51713189 545.71867412 1195.06207008 549.59803304 1192.6015625 553.47412109 C1191.48759378 555.2309992 1190.37577201 556.98923968 1189.265625 558.74853516 C1178.23486702 576.22274071 1166.7466933 593.35713453 1155.08459473 610.41345215 C1154.12949538 611.81057384 1153.17550073 613.2084506 1152.22167969 614.60644531 C1149.16627001 619.0838944 1146.0929239 623.5483868 1143 628 C1142.47422363 628.75716309 1141.94844727 629.51432617 1141.40673828 630.29443359 C1135.72207995 638.47108562 1130.01824106 646.63438687 1124.19204712 654.71105957 C1123.12671469 656.19155366 1122.06626334 657.67558437 1121.0128479 659.1645813 C1118.32457713 662.93135115 1115.58433744 666.53447151 1112.49609375 669.9831543 C1100.75699261 683.5546906 1098.71034127 697.34302392 1096.5 714.75 C1095.78117687 719.93533453 1095.03373208 725.11632923 1094.28125 730.296875 C1094.01360588 732.1784581 1094.01360588 732.1784581 1093.74055481 734.09805298 C1091.42714502 749.80114763 1087.54612132 765.30456988 1081.8125 780.125 C1081.43649658 781.10742676 1081.06049316 782.08985352 1080.6730957 783.10205078 C1068.09593817 815.04151265 1046.69278547 846.14213416 1020 868 C1019.11054687 868.76570313 1018.22109375 869.53140625 1017.3046875 870.3203125 C1010.19866745 876.38733223 1002.84479703 881.90527393 995 887 C994.16009521 887.54672363 994.16009521 887.54672363 993.30322266 888.10449219 C966.98610034 905.02210897 936.90323699 916.19603105 905.625 918.75 C897.82026071 919.70497366 894.15698719 923.34447681 889 929 C887.48819282 930.53866798 885.95979501 932.05938762 884.4284668 933.57861328 C883.43229275 934.57024717 882.44226393 935.56811577 881.46020508 936.57373047 C878.14393775 939.95739458 874.65687291 943.07975463 871.07470703 946.17919922 C867.63436293 949.19850803 864.3227237 952.35249806 861 955.5 C853.67274148 962.44086012 846.11199668 969.07273895 838.4375 975.625 C834.69291792 978.82366679 830.95679789 982.03043042 827.25390625 985.27734375 C820.65518231 991.05745484 813.98713948 996.67824875 807.05200195 1002.05151367 C803.36007537 1004.91479975 799.75521982 1007.85653405 796.1875 1010.875 C790.75483607 1015.44074947 785.15112104 1019.74783823 779.49780273 1024.03588867 C774.69295289 1027.68654575 769.94956722 1031.40240017 765.25 1035.1875 C759.09673676 1040.1410907 752.8706301 1044.98787572 746.59277344 1049.78222656 C743.89028317 1051.84844689 741.19559016 1053.92479139 738.5 1056 C737.41670296 1056.83338051 736.33336965 1057.66671388 735.25 1058.5 C734.71375 1058.9125 734.1775 1059.325 733.625 1059.75 C728.75 1063.5 728.75 1063.5 727.12231445 1064.75195312 C726.04778747 1065.57858698 724.97340401 1066.40540743 723.89916992 1067.23242188 C721.0572976 1069.41987307 718.21241318 1071.6032604 715.36328125 1073.78125 C714.47189453 1074.46380859 714.47189453 1074.46380859 713.5625 1075.16015625 C712.42148558 1076.03374542 711.27959914 1076.90619716 710.13671875 1077.77734375 C704.89933611 1081.79091587 703.5690844 1084.13150729 702.52734375 1090.5625 C702.3353817 1091.68313843 702.3353817 1091.68313843 702.13954163 1092.82641602 C701.73129432 1095.21639984 701.33384344 1097.60801574 700.9375 1100 C700.53592943 1102.3916612 700.13208399 1104.78289813 699.7247467 1107.17358398 C699.47168348 1108.66204721 699.2222572 1110.15113417 698.97679138 1111.64086914 C698.11118803 1116.77762393 698.11118803 1116.77762393 697 1119 C695.79166504 1118.95697754 694.58333008 1118.91395508 693.33837891 1118.86962891 C666.82574631 1116.66287326 666.82574631 1116.66287326 643.5 1126.1875 C641.55636543 1128.08312253 639.70388018 1130.02037365 637.89013672 1132.04052734 C634.51438301 1135.54011392 630.52082829 1138.20226817 626.5625 1141 C624.96813677 1142.16404784 623.3756829 1143.33071541 621.78515625 1144.5 C620.99512207 1145.0775 620.20508789 1145.655 619.39111328 1146.25 C615.41988192 1149.15645154 611.46053932 1152.07900547 607.5 1155 C605.91672395 1156.1667444 604.3333906 1157.33341106 602.75 1158.5 C601.96625 1159.0775 601.1825 1159.655 600.375 1160.25 C598 1162 595.625 1163.75 593.25 1165.5 C592.46616943 1166.07758057 591.68233887 1166.65516113 590.87475586 1167.25024414 C589.29231815 1168.41620806 587.70979869 1169.58206104 586.12719727 1170.74780273 C582.15448113 1173.67431443 578.18323006 1176.60277534 574.21484375 1179.53515625 C564.26587247 1186.88335488 554.27197757 1194.16518183 544.23388672 1201.39111328 C540.48640216 1204.09012128 536.74344155 1206.79538884 533 1209.5 C531.50002146 1210.58336304 530.00002146 1211.66669638 528.5 1212.75 C527.7575 1213.28625 527.015 1213.8225 526.25 1214.375 C513.875 1223.3125 513.875 1223.3125 501.5 1232.25 C500.75741943 1232.78633057 500.01483887 1233.32266113 499.24975586 1233.87524414 C497.7506555 1234.95788254 496.25146938 1236.0404022 494.75219727 1237.12280273 C490.98771832 1239.84079823 487.22478096 1242.56088068 483.46484375 1245.28515625 C474.05953314 1252.09617797 464.60777607 1258.83627757 455.10888672 1265.51611328 C451.56958833 1268.00648786 448.03504816 1270.50359792 444.5 1273 C443.08335588 1274.00003195 441.66668922 1275.00003196 440.25 1276 C439.54875 1276.495 438.8475 1276.99 438.125 1277.5 C434.9375 1279.75 434.9375 1279.75 431.75 1282 C431.0492334 1282.49467773 430.3484668 1282.98935547 429.62646484 1283.49902344 C428.20498748 1284.50238082 426.78343761 1285.50563549 425.36181641 1286.50878906 C421.89316142 1288.95659819 418.42564377 1291.40597931 414.9609375 1293.859375 C405.91181074 1300.26350631 396.82461967 1306.61123182 387.72021484 1312.93652344 C381.47129998 1317.27848276 375.23128875 1321.63278801 369 1326 C353.48838927 1336.86509728 337.9571 1347.69683505 322.29199219 1358.33984375 C315.45331672 1362.99220424 308.65805244 1367.70448562 301.875 1372.4375 C295.35591339 1376.98484019 288.82513764 1381.49654856 282.19140625 1385.875 C277.89512445 1388.73568213 273.63649571 1391.65033637 269.375 1394.5625 C256.33555407 1403.46657879 243.25770509 1412.31351562 230.17373657 1421.1519928 C225.24866822 1424.47925122 220.32607976 1427.81014637 215.40483093 1431.14305115 C191.40553041 1447.39294815 167.28399335 1463.44582072 143.05726624 1479.35456848 C137.48074525 1483.01901424 131.92250494 1486.7097931 126.37452698 1490.41726685 C119.50472062 1495.00508019 112.59669312 1499.534312 105.6875 1504.0625 C104.29067437 1504.97849163 102.89386477 1505.89450771 101.49707031 1506.81054688 C82.82671805 1519.0528337 64.1426387 1531.27382456 45.41650391 1543.43066406 C42.06398935 1545.6078679 38.71308595 1547.78754613 35.36206055 1549.96704102 C31.24228549 1552.64609803 27.12134807 1555.32336362 23 1558 C22.29875 1558.45552246 21.5975 1558.91104492 20.875 1559.38037109 C10.68699428 1565.9952277 0.46120169 1572.55008505 -9.7734375 1579.0925293 C-15.75656153 1582.91876619 -21.73046164 1586.75829046 -27.6875 1590.625 C-34.85773255 1595.27711517 -42.06484528 1599.86994563 -49.27929688 1604.453125 C-56.42581049 1608.99419016 -63.55855897 1613.55640731 -70.6875 1618.125 C-80.34186969 1624.30943829 -90.0201228 1630.45435812 -99.72167969 1636.56445312 C-103.64991631 1639.03959579 -107.57474565 1641.52013168 -111.5 1644 C-113.08331787 1645.00002448 -114.66665119 1646.00002451 -116.25 1647 C-117.03375 1647.495 -117.8175 1647.99 -118.625 1648.5 C-127.33333333 1654 -136.04166667 1659.5 -144.75 1665 C-145.53334717 1665.4947583 -146.31669434 1665.9895166 -147.1237793 1666.49926758 C-148.71113526 1667.50178243 -150.29853779 1668.50422354 -151.88598633 1669.5065918 C-155.78315395 1671.96751963 -159.67957101 1674.42961712 -163.57421875 1676.89453125 C-175.32919788 1684.33155888 -187.11969221 1691.71089637 -198.91943359 1699.07666016 C-203.94746489 1702.21589225 -208.97363037 1705.35810833 -214 1708.5 C-214.98742187 1709.11705811 -215.97484375 1709.73411621 -216.9921875 1710.36987305 C-222.03082899 1713.5186134 -227.06877508 1716.66845724 -232.10546875 1719.8203125 C-242.41418143 1726.26986608 -252.73355153 1732.70112914 -263.078125 1739.09301758 C-269.62885914 1743.14351381 -276.16016997 1747.2244196 -282.6875 1751.3125 C-292.18914958 1757.26178642 -301.72749868 1763.14922556 -311.28125 1769.0144043 C-318.60614788 1773.51534401 -325.90398731 1778.05744383 -333.1875 1782.625 C-341.94099735 1788.11235269 -350.74089694 1793.51740085 -359.57373047 1798.87597656 C-365.83906173 1802.67866522 -372.08433023 1806.51176223 -378.3125 1810.375 C-441.53010091 1849.56955004 -441.53010091 1849.56955004 -451 1850 C-452.62375202 1845.12874394 -450.13880796 1841.48368543 -448 1837 C-445.56509779 1832.52650953 -442.95321506 1828.16640937 -440.3125 1823.8125 C-439.59438965 1822.61652706 -438.87694573 1821.42015372 -438.16015625 1820.22338867 C-436.75480874 1817.87956602 -435.34558446 1815.53816062 -433.93212891 1813.19921875 C-432.26487746 1810.43858405 -430.60439843 1807.67413172 -428.94921875 1804.90625 C-426.97221783 1801.60047598 -424.98906307 1798.2985296 -423 1795 C-423.6798999 1795.4031543 -424.3597998 1795.80630859 -425.06030273 1796.22167969 C-428.1830791 1798.06950147 -431.31023405 1799.90978746 -434.4375 1801.75 C-436.04141602 1802.70132813 -436.04141602 1802.70132813 -437.67773438 1803.671875 C-454.81906016 1813.73650665 -454.81906016 1813.73650665 -462 1813 C-461.50450274 1807.6252311 -460.1152737 1803.55268358 -457.5 1798.8125 C-457.11328125 1798.09674805 -456.7265625 1797.38099609 -456.328125 1796.64355469 C-451.7493084 1788.31686636 -446.74905768 1780.23451209 -441.78515625 1772.1340332 C-436.58689852 1763.64766558 -431.50785565 1755.09995596 -426.5 1746.5 C-420.89194394 1736.87438419 -415.18480517 1727.31766306 -409.375 1717.8125 C-402.49187639 1706.55005019 -395.85430957 1695.16608182 -389.2890625 1683.71484375 C-386.36458934 1678.61816548 -383.37845663 1673.56408067 -380.33862305 1668.53564453 C-370.63121093 1652.47735769 -361.2080311 1636.24741085 -351.76611328 1620.03222656 C-349.42875192 1616.01922848 -347.08867049 1612.0078205 -344.74829102 1607.99658203 C-343.58056741 1605.99509626 -342.41308783 1603.9934681 -341.24584961 1601.99169922 C-338.35783297 1597.03909042 -335.46708968 1592.08811551 -332.5703125 1587.140625 C-325.97495585 1575.86856091 -319.44643268 1564.56064795 -312.98205566 1553.21310425 C-308.330749 1545.04929282 -303.62865595 1536.91726927 -298.875 1528.8125 C-293.54885769 1519.72672783 -288.37385139 1510.56462995 -283.25390625 1501.36132812 C-279.21756868 1494.12391299 -275.07554153 1486.95567615 -270.875 1479.8125 C-265.91070371 1471.36226839 -261.12396 1462.83617832 -256.46606445 1454.21362305 C-252.91001107 1447.63813457 -249.25953705 1441.12215324 -245.5625 1434.625 C-240.48168642 1425.68678527 -235.54210765 1416.67980712 -230.66430664 1407.62939453 C-227.48338911 1401.72960831 -224.26955723 1395.85110212 -221 1390 C-216.58441111 1382.09230287 -212.26372119 1374.13490215 -207.95922852 1366.16625977 C-205.29391546 1361.23279459 -202.62287007 1356.30289834 -199.92578125 1351.38671875 C-194.33134787 1341.18821052 -188.85382434 1330.94095674 -183.50415039 1320.61181641 C-180.05036458 1313.9612078 -176.49049867 1307.37638625 -172.875 1300.8125 C-168.61161717 1293.0619593 -164.55341759 1285.23641447 -160.63696289 1277.30541992 C-157.94666496 1271.86432582 -155.16609826 1266.48205105 -152.3125 1261.125 C-147.55084962 1252.17075581 -143.02998277 1243.10034759 -138.515625 1234.01998901 C-134.70559259 1226.35924811 -130.84960023 1218.73187769 -126.8125 1211.1875 C-122.57423434 1203.24718209 -118.67708435 1195.1628351 -114.81396484 1187.03442383 C-110.79279579 1178.59379243 -106.63704223 1170.2276551 -102.4375 1161.875 C-96.1338979 1149.32296912 -89.99588245 1136.70215922 -84 1124 C-83.42168331 1122.77793145 -82.84322626 1121.55592931 -82.26464844 1120.33398438 C-66.09416093 1086.17324945 -50.21384675 1051.88582234 -35.00463867 1017.28533936 C-33.9902363 1014.97778967 -32.97463762 1012.67076889 -31.95898438 1010.36376953 C-23.38241448 990.86945315 -14.97101028 971.30814772 -6.6875 951.6875 C-6.27881683 950.7197464 -5.87013367 949.7519928 -5.44906616 948.75491333 C-4.28099661 945.98695821 -3.11465888 943.21828189 -1.94921875 940.44921875 C-1.4377832 939.2359642 -1.4377832 939.2359642 -0.91601562 937.99819946 C1.45440937 932.35510828 3.72596125 926.68509688 6 921 C-39.54 921 -85.08 921 -132 921 C-130.68 912.75 -129.36 904.5 -128 896 C-134.93 895.67 -141.86 895.34 -149 895 C-148.38031513 886.07890298 -147.19056112 877.39844341 -145.66748047 868.59008789 C-145.42880229 867.18765924 -145.19059591 865.78515023 -144.95281982 864.38256836 C-144.44432371 861.38824708 -143.9328362 858.39445856 -143.41900253 855.40104866 C-142.60646475 850.66566696 -141.80254612 845.92884624 -141.00003052 841.1917572 C-138.86273368 828.58337557 -136.71528721 815.97672874 -134.56062138 803.37130398 C-133.14110768 795.06669228 -131.72667388 786.76125233 -130.32203209 778.45411104 C-129.52551017 773.74588645 -128.7208885 769.03914139 -127.91017509 764.33334076 C-127.40850904 761.41031983 -126.91432273 758.48607117 -126.42223358 755.56142426 C-126.08338965 753.56117019 -125.7355962 751.56243862 -125.38754272 749.56376648 C-125.18842285 748.37101105 -124.98930298 747.17825562 -124.78414917 745.94935608 C-124.60754194 744.91501969 -124.43093472 743.88068331 -124.24897575 742.8150034 C-123.91225188 739.00789031 -124.10759329 736.15823313 -126.47119141 733.09057617 C-127.09171387 732.49736572 -127.71223633 731.90415527 -128.3515625 731.29296875 C-129.03863281 730.62330078 -129.72570312 729.95363281 -130.43359375 729.26367188 C-131.15675781 728.57853516 -131.87992188 727.89339844 -132.625 727.1875 C-134.03636056 725.82942285 -135.44522915 724.46875108 -136.8515625 723.10546875 C-137.47885254 722.50887451 -138.10614258 721.91228027 -138.75244141 721.29760742 C-140.67661176 719.33058948 -142.47226962 717.32305703 -144.26928711 715.24169922 C-147.95807868 710.99347777 -151.85680323 706.99857065 -155.83984375 703.02734375 C-156.56563126 702.30059952 -157.29141876 701.57385529 -158.03919983 700.8250885 C-159.56323556 699.30037704 -161.08851569 697.7769085 -162.61499023 696.25463867 C-164.93132463 693.94366109 -167.24227078 691.62739229 -169.55273438 689.31054688 C-171.04395034 687.8199918 -172.53547653 686.329747 -174.02734375 684.83984375 C-175.048032 683.81611916 -175.048032 683.81611916 -176.08934021 682.77171326 C-179.28884589 679.58754635 -182.5259973 676.50255282 -185.9453125 673.5546875 C-190.44919979 669.66408063 -194.64625419 665.49763268 -198.84765625 661.28515625 C-199.66318466 660.47058456 -200.47871307 659.65601288 -201.31895447 658.8167572 C-203.03198008 657.10440807 -204.74375965 655.39081158 -206.4543457 653.67602539 C-209.05503552 651.06997985 -211.66101956 648.46931478 -214.26757812 645.86914062 C-215.94042486 644.19563301 -217.61296134 642.52181518 -219.28515625 640.84765625 C-220.05513443 640.0797023 -220.82511261 639.31174835 -221.61842346 638.52052307 C-225.74186798 634.379381 -229.68723564 630.1469889 -233.50218201 625.72019958 C-235.23628672 623.72863171 -237.0519677 621.84839928 -238.9375 620 C-239.60523438 619.34 -240.27296875 618.68 -240.9609375 618 C-241.63382813 617.34 -242.30671875 616.68 -243 616 C-247.64822916 611.44081738 -252.10105648 606.81218616 -256.35205078 601.87939453 C-258.7716393 599.11998825 -261.3313478 596.5197106 -263.9375 593.9375 C-264.45401123 593.42219727 -264.97052246 592.90689453 -265.50268555 592.37597656 C-268.35264325 589.55486908 -271.25572124 586.84885665 -274.3125 584.25 C-285.7041307 574.5504316 -285.7041307 574.5504316 -286.3125 567.25 C-286.26461164 562.84427075 -284.75257156 560.46037568 -282 557 C-280.9969384 555.66896837 -279.99634204 554.33606898 -279 553 C-279.43868408 552.61255615 -279.87736816 552.2251123 -280.3293457 551.82592773 C-282.33497989 550.04199264 -284.32362273 548.24009124 -286.3125 546.4375 C-287.00279297 545.82841797 -287.69308594 545.21933594 -288.40429688 544.59179688 C-293.59556112 539.85194692 -296.78299692 535.90605543 -297.1875 528.625 C-293.65411007 517.83886233 -282.94734483 512.23256095 -273.94921875 506.30859375 C-270.52996507 504.05405101 -267.20582485 501.70878735 -263.91015625 499.27734375 C-256.68710913 493.982298 -249.21387359 489.07089939 -241.75 484.125 C-240.33709274 483.18641893 -238.92433171 482.2476177 -237.51171875 481.30859375 C-234.71493424 479.44972396 -231.91710875 477.59243563 -229.11865234 475.73608398 C-226.38653294 473.92275504 -223.65779037 472.10451538 -220.93212891 470.28149414 C-214.293249 465.84134674 -207.64336123 461.4289336 -200.875 457.1875 C-200.08988037 456.69378906 -199.30476074 456.20007813 -198.49584961 455.69140625 C-195.99941361 454.12408845 -193.50028479 452.56116991 -191 451 C-190.15099121 450.46971191 -189.30198242 449.93942383 -188.42724609 449.39306641 C-156.63320883 429.56279555 -124.31847146 410.59865438 -91.36621094 392.75415039 C-89.31275587 391.63942224 -87.26378202 390.51639332 -85.21972656 389.38452148 C-81.12829057 387.13368195 -77.14840765 384.95857729 -72.75 383.37109375 C-69.02525872 381.91195961 -66.86089691 380.79785424 -64 378 C-62.85856869 375.07014174 -62.4282096 372.08733904 -61.96473694 368.98687744 C-61.73023821 367.6038142 -61.73023821 367.6038142 -61.49100214 366.1928103 C-61.15262792 364.18315112 -60.82414169 362.17180793 -60.50434995 360.15910816 C-59.99830171 356.98936239 -59.46181348 353.82622142 -58.91610527 350.66307831 C-57.68751249 343.51663389 -56.50048955 336.36353059 -55.31420898 329.20996094 C-54.85905355 326.47484349 -54.40315219 323.7398505 -53.94728088 321.00485229 C-52.97124677 315.14682387 -51.99696105 309.28850692 -51.02389336 303.42998505 C-49.60529376 294.88918621 -48.18373576 286.34888167 -46.76149548 277.80868843 C-44.43738015 263.85258299 -42.1153105 249.89613804 -39.79467773 235.93945312 C-37.56976408 222.55848184 -35.34435706 209.17759288 -33.11791992 195.796875 C-32.98181446 194.97888867 -32.845709 194.16090235 -32.70547914 193.31812856 C-31.20454592 184.29774628 -29.70336467 175.27740531 -28.20188236 166.25711441 C-28.06800002 165.45280198 -27.93411768 164.64848956 -27.7961783 163.81980403 C-27.25922285 160.59401066 -26.72226377 157.36821789 -26.18527342 154.14243034 C-24.76613604 145.61741795 -23.34739052 137.09234089 -21.93017387 128.56700897 C-16.72462865 97.25298635 -11.50134417 65.9420536 -6.21574254 34.6414302 C-5.8505388 32.47754699 -5.48589477 30.31357015 -5.12140739 28.14956617 C-4.45018781 24.16515768 -3.77625931 20.18121241 -3.10194397 16.19732666 C-2.90283216 15.01423747 -2.70372035 13.83114827 -2.49857485 12.61220789 C-2.22299591 10.98856766 -2.22299591 10.98856766 -1.94184971 9.33212662 C-1.78314256 8.39323097 -1.62443542 7.45433533 -1.46091896 6.48698831 C-1.05701089 4.30761465 -0.53757688 2.15030751 0 0 Z " fill="#000000" transform="translate(741,275)"/>
<path d="M0 0 C44.61264417 -0.06877337 89.2252827 -0.12158313 133.83796949 -0.15319599 C139.1134153 -0.15694779 144.38886099 -0.16083079 149.66430664 -0.16479492 C151.23957438 -0.16597532 151.23957438 -0.16597532 152.84666572 -0.16717956 C169.81682688 -0.18020818 186.78695732 -0.20384791 203.75710031 -0.23145839 C221.1899011 -0.25958356 238.62268589 -0.27619125 256.05550843 -0.28226548 C266.79919175 -0.28636722 277.54278825 -0.29928857 288.28644482 -0.3237494 C295.6691085 -0.33969453 303.05172776 -0.34438065 310.43440738 -0.34050413 C314.68405255 -0.33859614 318.93354676 -0.34137211 323.1831646 -0.35761642 C377.02507972 -0.55292925 426.42236661 12.71667063 466.74609375 49.93359375 C468.7463006 51.76740558 470.79343238 53.51037367 472.875 55.25 C510.41355473 88.19045867 531.34777344 137.91607469 535 187 C535.30308413 192.66024147 535.37172874 198.31764292 535.37060547 203.98510742 C535.37494503 206.40682284 535.41138832 208.82665401 535.44921875 211.24804688 C535.51544759 220.89427625 534.7028739 230.23397182 533.28417969 239.77368164 C533.10685366 240.98808678 532.92952763 242.20249191 532.74682808 243.4536972 C530.77604812 256.78596836 528.57323348 270.07930396 526.3393147 283.36954856 C525.73756249 286.95438532 525.1398481 290.53989577 524.54161072 294.12532043 C523.38771881 301.03732611 522.23048523 307.94876763 521.07180983 314.85997289 C518.91270381 327.73883628 516.75903561 340.6186106 514.6045627 353.49824971 C513.92305233 357.57224392 513.24134481 361.64620498 512.55923271 365.7200985 C509.08604149 386.46390218 505.6369011 407.21142808 502.22571564 427.96551895 C500.99857021 435.42735677 499.76696928 442.88846088 498.53565216 450.34961128 C497.40272066 457.21854526 496.27733455 464.08866063 495.15747356 470.95973682 C494.46666414 475.1862061 493.7683257 479.41140637 493.06793404 483.63629723 C492.75259823 485.54798708 492.44032594 487.46018575 492.13166618 489.37296486 C488.25517935 513.37591559 481.91269813 536.21510686 471 558 C470.69868164 558.61053223 470.39736328 559.22106445 470.08691406 559.85009766 C462.83719303 574.43776384 453.66054996 587.687545 443 600 C441.94232422 601.22396484 441.94232422 601.22396484 440.86328125 602.47265625 C431.2958506 613.31116387 421.30998941 623.0610647 409.72509766 631.70166016 C408.11340709 632.91464777 406.5300571 634.16503797 404.94921875 635.41796875 C376.82899735 656.88458857 338.78936856 671.10681168 303.20446777 671.15821838 C302.46259295 671.16315636 301.72071813 671.16809434 300.95636225 671.17318195 C298.49369669 671.18842561 296.03105691 671.19688156 293.56835938 671.20532227 C291.79380063 671.21491114 290.01924412 671.22492181 288.24468994 671.23532104 C283.44367826 671.2622668 278.64265686 671.28333204 273.84161186 671.30332303 C268.81809611 671.32524658 263.79460998 671.35260401 258.77111816 671.37937927 C249.2657552 671.42922026 239.76037572 671.47419085 230.25498056 671.51740164 C219.43031395 671.56684761 208.60567706 671.62173837 197.78103924 671.67708123 C175.52072055 671.7907693 153.26037345 671.89763685 131 672 C130.85422894 672.84462579 130.70845787 673.68925158 130.5582695 674.55947208 C126.99363445 695.21359723 123.42883485 715.86769396 119.86385727 736.52175999 C118.13979041 746.51034259 116.41577707 756.49893442 114.69189453 766.48754883 C113.18747675 775.20452768 111.68295366 783.92148834 110.17830968 792.63842815 C109.38333229 797.24403708 108.58840384 801.84965443 107.79360199 806.45529366 C107.56469218 807.78169421 107.56469218 807.78169421 107.33115792 809.13489074 C107.02904041 810.88554794 106.72695329 812.63621039 106.42489791 814.38687831 C105.71047411 818.52693223 104.99527333 822.66684858 104.27814865 826.80643559 C103.0924546 833.65314609 101.91207894 840.50037199 100.76379395 847.35348511 C100.58140293 848.43211036 100.39901192 849.51073561 100.2110939 850.62204647 C99.88767752 852.53751014 99.56844021 854.45368736 99.25469589 856.37075901 C99.0462322 857.59868876 99.0462322 857.59868876 98.83355713 858.85142517 C98.71931522 859.54061507 98.60507332 860.22980497 98.48736954 860.93987942 C98 863 98 863 96 868 C16.47 868 -63.06 868 -145 868 C-143.87499953 854.49999435 -143.87499953 854.49999435 -143.02536011 849.45513916 C-142.83326714 848.29985246 -142.64117416 847.14456575 -142.44326019 845.95427036 C-142.1288586 844.10953837 -142.1288586 844.10953837 -141.80810547 842.22753906 C-141.58126721 840.87486926 -141.35486404 839.52212644 -141.12885284 838.1693182 C-140.51111098 834.47942639 -139.88725873 830.79059091 -139.26233625 827.1019094 C-138.58630757 823.10494561 -137.91603093 819.10701674 -137.24502563 815.10920715 C-136.0774745 808.15779793 -134.90628685 801.20700924 -133.73266602 794.25662231 C-132.00598467 784.03077987 -130.28519325 773.80395249 -128.56561518 763.57691348 C-124.88987809 741.71723931 -121.20501728 719.85910689 -117.5182035 698.00129861 C-115.70725571 687.2647877 -113.89706003 676.52815002 -112.08691406 665.79150391 C-111.7643367 663.87821757 -111.44175859 661.96493136 -111.11917973 660.05164528 C-108.54645492 644.79219496 -105.97377043 629.53273783 -103.40138912 614.2732296 C-103.16254978 612.856422 -103.16254978 612.856422 -102.91888541 611.41099203 C-102.59695085 609.50125874 -102.27501683 607.59152537 -101.95308334 605.6817919 C-100.98092475 599.91498333 -100.00860913 594.14820127 -99.03618246 588.3814379 C-89.48900483 531.76357773 -79.9937903 475.13728141 -70.5625 418.5 C-70.4173955 417.62863183 -70.27229099 416.75726366 -70.12278938 415.85949039 C-66.69004308 395.24510524 -63.25973784 374.63031418 -59.83059192 354.01532984 C-51.34987854 303.03194575 -42.85646567 252.05067804 -34.34731448 201.07203245 C-33.57138102 196.42337652 -32.79550365 191.77471124 -32.01972198 187.12602997 C-27.63999861 160.88161605 -23.25740492 134.63768463 -18.86822319 108.39485073 C-17.03632582 97.44171222 -15.20543462 86.4884079 -13.37731934 75.53463745 C-11.8234009 66.22390924 -10.2672537 56.91355701 -8.70819587 47.60368794 C-7.90438381 42.80335099 -7.10165221 38.00283949 -6.30166054 33.20186424 C-5.5637731 28.77380236 -4.82291624 24.34624812 -4.07965231 19.91908562 C-3.80930727 18.30555168 -3.54007358 16.69183109 -3.27201891 15.07791507 C-2.90884626 12.89230473 -2.54174644 10.70739057 -2.17359924 8.52261353 C-1.96971368 7.30298731 -1.76582811 6.08336109 -1.5557642 4.8267765 C-1 2 -1 2 0 0 Z " fill="#FFFFFF" transform="translate(1314,485)"/>
<path d="M0 0 C79.53 0 159.06 0 241 0 C239.85129118 13.7845058 239.85129118 13.7845058 238.74755859 20.21839905 C238.62490316 20.95749132 238.50224773 21.69658359 238.37587547 22.4580726 C237.97136327 24.88829469 237.55994545 27.31729146 237.1484375 29.74633789 C236.85393524 31.50669543 236.55985944 33.26712436 236.26617432 35.02761841 C235.47315931 39.77358671 234.67405504 44.51851077 233.87366486 49.2632401 C233.03540354 54.23805245 232.20237689 59.21374151 231.36865234 64.1893158 C229.96982289 72.53261935 228.56720516 80.8752789 227.16210938 89.2175293 C225.53709092 98.86566402 223.91722466 108.51465248 222.3002758 118.16414267 C220.57707424 128.44741908 218.85019392 138.73007519 217.12220001 149.01254725 C216.62464196 151.97478784 216.12776827 154.93714254 215.63104248 157.89952278 C214.85193272 162.54484819 214.07036045 167.18975274 213.2868576 171.83433914 C212.99940272 173.54064627 212.71277048 175.24709221 212.42700958 176.95368385 C212.03772264 179.27765722 211.64547581 181.60111167 211.25244141 183.92445374 C211.0334317 185.22611009 210.814422 186.52776644 210.58877563 187.86886692 C210 191 210 191 209 194 C210.28720947 193.99333817 211.57441895 193.98667633 212.90063477 193.97981262 C225.13696414 193.91852741 237.37326166 193.87380263 249.60971069 193.84456348 C255.89791346 193.8290252 262.1859906 193.80800809 268.47412109 193.77368164 C274.56258344 193.7406599 280.65092632 193.72305848 286.73947144 193.71536827 C289.04183834 193.70990047 291.34420004 193.69922823 293.64651489 193.68280983 C313.31289161 193.54836906 333.09252521 194.58230209 352.1875 199.6875 C353.16759033 199.94313721 354.14768066 200.19877441 355.1574707 200.4621582 C408.19245464 214.79882496 451.75517828 250.98877792 479.18408203 298.03076172 C499.72245355 333.82423924 507.83789579 376.93649022 502.86328125 417.8359375 C502.66879646 419.4350724 502.66879646 419.4350724 502.47038269 421.06651306 C500.52845998 436.37631886 497.86167415 451.5764964 495.28195953 466.78869247 C494.46100255 471.6393271 493.64753425 476.49121788 492.83349609 481.34301758 C491.74852779 487.80732843 490.66301058 494.27154492 489.57495117 500.7353363 C485.46371736 525.15988983 481.38982459 549.59065748 477.31902122 574.02197456 C476.09652408 581.35885655 474.87361247 588.6956689 473.64953613 596.0322876 C467.36374354 633.70704512 461.10397948 671.38602817 454.87416101 709.07008475 C453.54007176 717.13989812 452.20535307 725.20960717 450.87023926 733.2792511 C450.49018179 735.5764703 450.11012477 737.87368958 449.73006821 740.17090893 C449.16094938 743.61088296 448.59182144 747.05085549 448.02265978 750.49082243 C445.76224442 764.15298656 443.50453553 777.81559213 441.25098485 791.4788903 C439.82949721 800.0961991 438.40515784 808.71303347 436.97863322 817.32950985 C436.14582194 822.36058158 435.31445337 827.39188194 434.48661613 832.42377472 C433.72318161 837.06413965 432.956079 841.70388229 432.18599868 846.34314883 C431.90570738 848.0359283 431.62681941 849.7289408 431.34940934 851.42219484 C430.97383716 853.71340651 430.59336101 856.00374892 430.21156311 858.29393005 C430.0003032 859.57347281 429.78904329 860.85301558 429.57138157 862.17133236 C429 865 429 865 428 866 C424.90285742 866.09804809 421.82799884 866.12990642 418.73045349 866.12025452 C417.74546295 866.12110894 416.7604724 866.12196337 415.74563366 866.12284368 C412.41821365 866.12450147 409.09084316 866.11897225 405.76342773 866.11352539 C403.3889262 866.11324356 401.01442458 866.11340118 398.6399231 866.1139679 C392.8440998 866.11422605 387.04829294 866.10987473 381.25247341 866.10353024 C374.51097875 866.0963963 367.76948647 866.09488635 361.02798856 866.09374207 C349.00473954 866.09155123 336.98149729 866.08489027 324.95825195 866.07543945 C313.27596063 866.06626616 301.59367115 866.05918492 289.91137695 866.05493164 C289.19177374 866.05466892 288.47217053 866.05440619 287.73076116 866.05413551 C284.12087064 866.05283051 280.5109801 866.05156679 276.90108955 866.05032361 C246.93405496 866.03995 216.96702827 866.02225669 187 866 C188.13197687 856.57146484 189.37090172 847.18669474 190.95410156 837.82128906 C191.14092782 836.69974174 191.32775408 835.57819443 191.52024174 834.42266083 C192.1406249 830.70312731 192.76563095 826.98438629 193.390625 823.265625 C193.84435009 820.55319141 194.29706058 817.84058872 194.74980164 815.12799072 C195.72949838 809.26117116 196.71150382 803.39474189 197.69503784 797.52856445 C199.13942892 788.91329153 200.57973475 780.29733927 202.01894796 771.68120003 C204.29264251 758.06936844 206.56820729 744.45785045 208.84506762 730.84654808 C214.5642892 696.65572673 220.27116523 662.46284507 225.9734745 628.26919937 C227.60351514 618.49506876 229.2342936 608.72106246 230.86706543 598.9473877 C232.71387612 587.89229482 234.55923156 576.83696013 236.40234375 565.78125 C236.62183579 564.46475059 236.62183579 564.46475059 236.84576201 563.12165523 C241.02206738 538.06746466 245.14125321 513.00535289 249.11558533 487.91821289 C251.92405192 470.22369601 254.96679405 452.57266481 258.12372494 434.93711281 C261.1204294 417.67237398 262.56286017 401.27267033 252.25 386.25 C245.07695848 376.97656511 236.69363335 370.49858862 225 368 C223.50475362 367.89003795 222.00581701 367.82482965 220.50683594 367.79467773 C219.62622498 367.77473251 218.74561401 367.75478729 217.83831787 367.73423767 C216.89651672 367.71752518 215.95471558 367.70081268 214.984375 367.68359375 C213.52792572 367.6524221 213.52792572 367.6524221 212.04205322 367.62062073 C208.94477315 367.55531138 205.84740932 367.49632677 202.75 367.4375 C200.64842889 367.39429708 198.5468662 367.35068222 196.4453125 367.30664062 C191.29696052 367.19964902 186.14852442 367.0983291 181 367 C180.95247998 367.64123401 180.90495996 368.28246801 180.85599995 368.94313335 C180.24481827 376.43130474 179.1425897 383.77091087 177.8737793 391.1730957 C177.65882309 392.44726852 177.44386688 393.72144135 177.22239685 395.03422546 C176.63452869 398.5181485 176.04149769 402.00117462 175.44748664 405.4840548 C174.81218246 409.21438633 174.18163728 412.94552256 173.55049133 416.67655945 C172.47968986 423.00269682 171.40584769 429.32831163 170.32983398 435.65356445 C168.85883103 444.30074168 167.3930526 452.94879742 165.92853391 461.59707487 C160.56447257 493.26865545 155.16028316 524.93326617 149.72509146 556.59271145 C143.50411223 592.83055691 137.35234022 629.08008881 131.20785373 665.33097208 C130.10713706 671.82480236 129.00599967 678.3185612 127.90466309 684.81228638 C121.70828935 721.3482997 115.51476005 757.88476854 109.37109375 794.4296875 C109.06173102 796.26963319 109.06173102 796.26963319 108.74611855 798.1467495 C106.88250204 809.23188328 105.0206916 820.31731575 103.16485691 831.40375519 C102.52354629 835.23355767 101.88111177 839.0631711 101.23846626 842.89274979 C100.8127205 845.43280732 100.38872648 847.97315286 99.96482849 850.51351929 C99.71460497 852.00504149 99.4642909 853.49654851 99.21386719 854.98803711 C99.00155457 856.25763779 98.78924194 857.52723846 98.57049561 858.83531189 C98.13221863 861.26654872 97.61532735 863.61179818 97 866 C67.22382865 866.02279444 37.4476576 866.04050029 7.67147941 866.05106533 C4.15907871 866.05231609 0.64667802 866.05361041 -2.86572266 866.05493164 C-3.56500189 866.05519395 -4.26428113 866.05545626 -4.98475064 866.05572652 C-16.31922307 866.06008221 -27.65369045 866.06796921 -38.98815988 866.0771528 C-50.61147688 866.08649213 -62.23479093 866.09198131 -73.8581115 866.09408849 C-80.38964403 866.09539553 -86.92116508 866.09848094 -93.45269394 866.10573006 C-99.59374921 866.11249091 -105.73478822 866.11461682 -111.87584686 866.11310768 C-114.13581302 866.11338398 -116.39577969 866.11538871 -118.65574265 866.11920547 C-121.72916411 866.12414372 -124.80252329 866.12299777 -127.87594604 866.12025452 C-128.78060226 866.12316736 -129.68525848 866.1260802 -130.61732852 866.12908131 C-136.77175758 866.11412121 -136.77175758 866.11412121 -139 865 C-139.83767936 846.15681693 -139.13116333 828.10400536 -136.01660156 809.49658203 C-135.70034626 807.54435903 -135.38519978 805.59195613 -135.071064 803.63939095 C-134.23524996 798.47014916 -133.38138002 793.30406782 -132.52164268 788.13875675 C-132.00670973 785.04037286 -131.49572364 781.94136558 -130.98616028 778.84209442 C-128.6539278 764.66193131 -126.28129265 750.48870382 -123.89774942 736.31708694 C-122.86007497 730.14344786 -121.82569925 723.96925603 -120.79098511 717.79512024 C-119.02662957 707.2693633 -117.26065626 696.74387922 -115.49346924 686.21859741 C-111.19491002 660.61595836 -106.90481457 635.01190003 -102.61561195 609.40769203 C-101.91820721 605.24457261 -101.22072895 601.08146552 -100.52319331 596.91836804 C-94.73347256 562.36320447 -88.95914987 527.8055702 -83.2421875 493.23828125 C-83.09863768 492.37033227 -82.95508785 491.5023833 -82.80718803 490.60813284 C-81.14511893 480.55772132 -79.48479191 470.50702238 -77.82524109 460.45619476 C-68.32223902 402.90284402 -58.70041588 345.37072865 -48.96600872 287.85606307 C-47.43634709 278.81821065 -45.90730811 269.78025304 -44.37890625 260.7421875 C-44.2378152 259.90792087 -44.09672414 259.07365424 -43.9513576 258.2141068 C-38.66493545 226.95292901 -33.42655521 195.68379014 -28.20062971 164.41244745 C-27.3900404 159.56229007 -26.57920124 154.71217447 -25.76836264 149.86205876 C-22.16828178 128.32742788 -18.56921926 106.7926297 -14.97838491 85.25645483 C-13.48274303 76.28714804 -11.98487984 67.31821396 -10.48536593 58.3495537 C-9.44368908 52.11844385 -8.40474212 45.88688742 -7.36792362 39.65496743 C-6.73305405 35.84319316 -6.09550054 32.03187153 -5.45716286 28.22067666 C-5.16462523 26.47079399 -4.87318612 24.72072725 -4.58295441 22.97046065 C-4.18747017 20.58640563 -3.78799863 18.203051 -3.38755798 15.81982422 C-3.2756218 15.13908219 -3.16368562 14.45834015 -3.04835743 13.75696957 C-2.25494153 9.07065281 -1.1613064 4.64522562 0 0 Z " fill="#FEFEFE" transform="translate(751,292)"/>
<path d="M0 0 C1.20785156 -0.01224609 2.41570313 -0.02449219 3.66015625 -0.03710938 C19.62400144 -0.06316571 19.62400144 -0.06316571 26 4.1875 C27.29917639 11.32457126 25.39594281 19.20494823 24.19140625 26.25024414 C23.99439999 27.44190909 23.79739372 28.63357405 23.59441757 29.86135006 C23.15847296 32.49037049 22.71955975 35.11868955 22.27553558 37.74633789 C21.53341641 42.13808852 20.80286202 46.53172571 20.07305908 50.92553711 C18.97773954 57.51211072 17.87652411 64.09767773 16.77160645 70.68264771 C15.12620779 80.48943408 13.49011859 90.29775632 11.85653925 100.10651767 C11.05632109 104.91133945 10.25576674 109.7161052 9.45513916 114.52085876 C9.29047708 115.5090425 9.12581501 116.49722623 8.95616317 117.51535493 C7.73467973 124.84462149 6.51143795 132.17359352 5.28753662 139.50245667 C-1.20941848 178.4097737 -7.67476111 217.32230922 -14.13468194 256.23578897 C-14.81988473 260.36330105 -15.50512152 264.49080749 -16.19035339 268.61831474 C-18.25237441 281.0390153 -20.3143531 293.45972288 -22.37617496 305.88045649 C-28.0381788 339.98917225 -33.70391869 374.09726706 -39.37045489 408.20523011 C-40.59527318 415.57764891 -41.82004761 422.95007499 -43.04481989 430.32250143 C-45.36315081 444.27751133 -47.68155522 458.23250902 -50 472.1875 C-43.07 472.5175 -36.14 472.8475 -29 473.1875 C-30.5 494.1875 -30.5 494.1875 -33 499.1875 C46.53 499.1875 126.06 499.1875 208 499.1875 C206.87498306 511.56268639 206.87498306 511.56268639 205.89941406 517.40574646 C205.79309284 518.04935704 205.68677162 518.69296762 205.57722855 519.35608155 C205.22718024 521.46908163 204.87144234 523.58107965 204.515625 525.69311523 C204.26060265 527.22511689 204.00593327 528.75717735 203.75158691 530.28929138 C203.06520409 534.41749754 202.37381309 538.54485021 201.68138123 542.67204547 C200.95575351 547.0018602 200.23450701 551.33240485 199.51269531 555.66285706 C198.30156393 562.9250299 197.08736066 570.18668363 195.87109375 577.44799805 C194.46520974 585.84146889 193.06327455 594.23559147 191.66363907 602.63010639 C190.17119098 611.58119676 188.67626829 620.5318724 187.18040466 629.48239255 C186.75005095 632.05828876 186.320117 634.63425475 185.89025879 637.21023369 C185.21548543 641.25297543 184.53902488 645.2954314 183.86125183 649.33767128 C183.61277823 650.8210722 183.36485092 652.30456474 183.11750793 653.7881546 C182.78003452 655.81173756 182.44057056 657.83497671 182.10058594 659.85813904 C181.91107361 660.99056251 181.72156128 662.12298597 181.52630615 663.2897253 C181.10548836 665.60669453 180.57114096 667.90293614 180 670.1875 C186.93 670.1875 193.86 670.1875 201 670.1875 C203.86356421 678.77819264 199.48869615 688.25532312 198 697.1875 C244.86 697.1875 291.72 697.1875 340 697.1875 C334.37414966 702.81335034 334.37414966 702.81335034 330.98828125 705.28125 C330.23998047 705.82974609 329.49167969 706.37824219 328.72070312 706.94335938 C327.52864258 707.80670898 327.52864258 707.80670898 326.3125 708.6875 C325.47525391 709.29916016 324.63800781 709.91082031 323.77539062 710.54101562 C317.4620186 715.14678891 311.12404313 719.71893324 304.78149414 724.28442383 C299.24200059 728.2757884 293.74049739 732.31656754 288.25 736.375 C281.73285414 741.19047949 275.17886482 745.94614617 268.57421875 750.640625 C264.45110353 753.57292785 260.35040624 756.53606221 256.25 759.5 C255.49267578 760.04720703 254.73535156 760.59441406 253.95507812 761.15820312 C250.11813491 763.93131086 246.28289631 766.70675465 242.44921875 769.484375 C233.04883595 776.29109334 223.60244836 783.02752414 214.10888672 789.70361328 C210.56958833 792.19398786 207.03504816 794.69109792 203.5 797.1875 C202.08335588 798.18753195 200.66668922 799.18753196 199.25 800.1875 C198.54875 800.6825 197.8475 801.1775 197.125 801.6875 C189.33333333 807.1875 181.54166667 812.6875 173.75 818.1875 C173.0492334 818.68217773 172.3484668 819.17685547 171.62646484 819.68652344 C170.20498748 820.68988082 168.78343761 821.69313549 167.36181641 822.69628906 C163.89316142 825.14409819 160.42564377 827.59347931 156.9609375 830.046875 C146.00652737 837.79955112 134.99411409 845.46747826 123.97167969 853.12304688 C120.10041792 855.81244792 116.23088808 858.50433349 112.36157227 861.1965332 C110.45074834 862.52600758 108.53977779 863.85527123 106.62866211 865.18432617 C101.82183635 868.52726427 97.01671647 871.8726067 92.21484375 875.22265625 C80.05849396 883.69946247 67.84753102 892.09096252 55.59179688 900.42333984 C51.55596086 903.17041511 47.527933 905.92885587 43.5 908.6875 C24.21468125 921.88789891 4.88989759 935.02949156 -14.46875 948.12207031 C-17.60765626 950.24511424 -20.74554283 952.36965562 -23.8828125 954.49511719 C-44.74404579 968.62654353 -65.66772697 982.65270869 -86.73150635 996.48068237 C-102.6743016 1006.94898971 -118.50800189 1017.571975 -134.27929688 1028.296875 C-144.01817734 1034.90746514 -153.85775402 1041.31374195 -163.83178711 1047.5637207 C-168.70033942 1050.61754863 -173.48843086 1053.78233821 -178.25 1057 C-189.43151263 1064.50170767 -200.70972438 1071.85089445 -212 1079.1875 C-213.76700066 1080.3371265 -215.53392975 1081.48686301 -217.30078125 1082.63671875 C-222.19852822 1085.82338487 -227.09879173 1089.00616076 -232 1092.1875 C-232.69689941 1092.64012207 -233.39379883 1093.09274414 -234.11181641 1093.55908203 C-244.23558406 1100.13235706 -254.39827433 1106.643595 -264.5690918 1113.14379883 C-271.06382738 1117.29813336 -277.54163824 1121.47686916 -284 1125.6875 C-294.54846545 1132.56289627 -305.15701007 1139.34332492 -315.76806641 1146.12158203 C-319.00703715 1148.19199829 -322.24407239 1150.26540596 -325.48046875 1152.33984375 C-335.62445875 1158.84103686 -345.77681009 1165.32749626 -355.97021484 1171.75097656 C-361.99113675 1175.54596633 -367.99744858 1179.363529 -374 1183.1875 C-383.21762558 1189.05851727 -392.45160205 1194.90307004 -401.6953125 1200.73291016 C-403.98545164 1202.17831789 -406.27419657 1203.62590684 -408.5625 1205.07421875 C-418.38400653 1211.28856894 -428.23022013 1217.46227155 -438.08984375 1223.6159668 C-444.30178214 1227.49495294 -450.50068213 1231.39359447 -456.6875 1235.3125 C-464.03709562 1239.96566567 -471.42287314 1244.55784291 -478.82421875 1249.12817383 C-485.46051716 1253.2280257 -492.07675209 1257.35910096 -498.6875 1261.5 C-509.34523436 1268.17231537 -520.04809265 1274.76947616 -530.76171875 1281.3515625 C-536.3487748 1284.78462431 -541.92648916 1288.23250296 -547.5 1291.6875 C-557.43083885 1297.84175542 -567.37984191 1303.96628187 -577.33203125 1310.0859375 C-581.70624868 1312.77570144 -586.07861778 1315.46842636 -590.44921875 1318.1640625 C-605.67285315 1327.55061974 -620.9362706 1336.86931012 -636.24072266 1346.12335205 C-638.03331573 1347.20765195 -639.82529805 1348.29295574 -641.6171875 1349.37841797 C-645.09651751 1351.48550457 -648.57924705 1353.58690461 -652.0625 1355.6875 C-653.65106812 1356.64958374 -653.65106812 1356.64958374 -655.27172852 1357.63110352 C-656.24553467 1358.21690186 -657.21934082 1358.8027002 -658.22265625 1359.40625 C-659.07609619 1359.92123047 -659.92953613 1360.43621094 -660.80883789 1360.96679688 C-663 1362.1875 -663 1362.1875 -666 1363.1875 C-664.71044594 1358.89426721 -663.07177084 1355.34102579 -660.71875 1351.53125 C-660.05101562 1350.44199219 -659.38328125 1349.35273437 -658.6953125 1348.23046875 C-658.33856445 1347.65474121 -657.98181641 1347.07901367 -657.61425781 1346.48583984 C-656.07960417 1344.0090084 -654.55833696 1341.52404608 -653.03613281 1339.03955078 C-652.2353729 1337.73282341 -651.43393067 1336.42651393 -650.63183594 1335.12060547 C-646.36816012 1328.17460914 -642.18266402 1321.18246197 -638 1314.1875 C-633.5624584 1306.77130498 -629.11666951 1299.36082232 -624.61328125 1291.984375 C-624.25577286 1291.39865723 -623.89826447 1290.81293945 -623.52992249 1290.20947266 C-623.17417648 1289.62665527 -622.81843048 1289.04383789 -622.4519043 1288.44335938 C-615.58298735 1277.1891332 -608.86892323 1265.85833434 -602.31396484 1254.41748047 C-598.59017502 1247.92296045 -594.80803097 1241.47060834 -590.9375 1235.0625 C-585.45285197 1225.97975428 -580.10037852 1216.82376491 -574.765625 1207.65234375 C-572.13968353 1203.13892002 -569.50382004 1198.63149967 -566.859375 1194.12890625 C-566.50802994 1193.53067047 -566.15668488 1192.93243469 -565.79469299 1192.31607056 C-565.07806659 1191.09592538 -564.36143755 1189.87578175 -563.64480591 1188.65563965 C-555.98304178 1175.60784869 -548.3966781 1162.51800215 -540.8515625 1149.40234375 C-538.96725849 1146.13065134 -537.07810894 1142.8618026 -535.1875 1139.59375 C-527.58115012 1126.44207551 -520.04787515 1113.25212691 -512.59277344 1100.01416016 C-509.90022642 1095.2357559 -507.19959121 1090.46192681 -504.5 1085.6875 C-503.41405699 1083.76562812 -502.32811948 1081.84375312 -501.2421875 1079.921875 C-499.1042596 1076.13909086 -496.96344989 1072.35795993 -494.8203125 1068.578125 C-487.10901613 1054.970511 -479.4939092 1041.31121236 -471.91162109 1027.63134766 C-470.01465746 1024.21390589 -468.11181619 1020.79980644 -466.20703125 1017.38671875 C-458.80328637 1004.11206173 -451.51649935 990.78126591 -444.33203125 977.38671875 C-441.24780849 971.63905124 -438.13008921 965.9102883 -435 960.1875 C-425.71795517 943.19858281 -416.46441089 926.19322383 -407.609375 908.97680664 C-404.78298739 903.50967178 -401.86190452 898.10017377 -398.89880371 892.70631409 C-392.153626 880.42040693 -385.71260156 868.00009832 -379.375 855.5 C-377.79619877 852.39473708 -376.21626144 849.29005411 -374.63618469 846.18544006 C-373.58399631 844.11801613 -372.53214385 842.0504212 -371.4806366 839.98265076 C-367.23519408 831.63737157 -362.95136752 823.31234583 -358.65560913 814.9928894 C-347.24588759 792.88665346 -335.96038733 770.70646021 -325.30639648 748.22436523 C-322.50254955 742.31105361 -319.65821136 736.41897097 -316.78515625 730.5390625 C-316.22083389 729.38408012 -316.22083389 729.38408012 -315.64511108 728.20576477 C-315.26271271 727.42315781 -314.88031433 726.64055084 -314.48632812 725.83422852 C-306.75362672 710.0078352 -299.17200982 694.12852033 -291.81542969 678.12304688 C-289.73794957 673.61166615 -287.63797271 669.11081462 -285.5390625 664.609375 C-275.11524189 642.24049821 -264.89962639 619.79326578 -255 597.1875 C-254.36001068 595.72706268 -254.36001068 595.72706268 -253.70709229 594.23712158 C-242.24293994 568.06710878 -230.89920248 541.85529359 -220.05102539 515.4230957 C-219.55546646 514.21657852 -219.55546646 514.21657852 -219.04989624 512.98568726 C-218.44205715 511.50404632 -217.83575223 510.02177459 -217.23135376 508.53872681 C-215.92443541 505.34794441 -214.54404154 502.27558307 -213 499.1875 C-175.05 499.1875 -137.1 499.1875 -98 499.1875 C-97.34 494.2375 -96.68 489.2875 -96 484.1875 C-95.17465352 479.07723595 -94.32883388 473.97320217 -93.45092773 468.87207031 C-93.19780529 467.3889629 -92.94492876 465.9058135 -92.69227314 464.4226265 C-92.14703853 461.22502515 -91.60010113 458.02772156 -91.05181122 454.8306427 C-90.15802041 449.61880751 -89.26817079 444.40630347 -88.37872314 439.19372559 C-87.08275878 431.60101191 -85.78504898 424.00859838 -84.48617554 416.41638184 C-81.15136121 396.92254998 -77.82657052 377.42700634 -74.50117898 357.93156528 C-73.95014823 354.7012995 -73.39901613 351.47105103 -72.84786034 348.24080658 C-64.94728019 301.93477272 -57.10285313 255.61929252 -49.27101296 209.30158985 C-47.52044516 198.94894055 -45.76891084 188.59645484 -44.01730788 178.24398065 C-36.04099386 131.10145754 -36.04099386 131.10145754 -28.07905674 83.95650482 C-26.30474143 73.44070885 -24.52808321 62.92531132 -22.74920559 52.41028595 C-21.6078011 45.66236848 -20.46974807 38.91389875 -19.33459759 32.16492653 C-18.669492 28.21541914 -18.00115637 24.26646417 -17.33174706 20.31768417 C-17.03152729 18.54264815 -16.7326896 16.76737772 -16.43535805 14.99185562 C-16.04129338 12.63960377 -15.64242412 10.28821993 -15.2421875 7.93701172 C-15.0241748 6.64431366 -14.80616211 5.3516156 -14.58154297 4.01974487 C-13.26004685 -2.41623803 -5.4512265 0.00283623 0 0 Z " fill="#FFFFFF" transform="translate(974,696.8125)"/>
<path d="M0 0 C4.2611113 0.00008082 8.52211406 -0.00680788 12.78320312 -0.02050781 C60.23871284 -0.17053332 107.45668288 1.74373701 154.61669922 7.18530273 C155.29991241 7.26302917 155.98312561 7.34075562 156.68704224 7.4208374 C166.65896024 8.56798343 176.46591322 10.23019084 186.30419922 12.18530273 C187.15094508 36.66765657 187.89224949 59.47875586 179.50585938 82.83569336 C178.26966254 86.28157321 177.12959841 89.7489088 176.00341797 93.23217773 C152.15328003 165.93455718 117.51434993 236.46110143 80.30419922 303.18530273 C79.18827551 305.19830234 78.0723919 307.21132418 76.95654297 309.22436523 C68.93292574 323.65949254 60.67949038 337.95187131 52.30419922 352.18530273 C51.21174861 354.04728032 50.11930065 355.90925947 49.02685547 357.77124023 C37.3765229 377.59301108 25.39695535 397.18768661 12.98828125 416.54370117 C11.42143723 419.00140664 9.87270061 421.46924632 8.33154297 423.94311523 C-2.79821294 441.74176353 -14.67312922 459.05065702 -26.4539032 476.42158508 C-29.40165609 480.77296664 -32.33173457 485.13474576 -35.22998047 489.51928711 C-35.78688568 490.36090393 -36.34379089 491.20252075 -36.91757202 492.06964111 C-37.97244627 493.6666808 -39.02435583 495.26568373 -40.07290649 496.86688232 C-41.25515281 498.65671787 -42.47163969 500.42386944 -43.69580078 502.18530273 C-44.02580078 502.18530273 -44.35580078 502.18530273 -44.69580078 502.18530273 C-44.14779745 494.39791431 -43.26555795 486.76364062 -41.94580078 479.07104492 C-41.77169678 478.0318541 -41.59759277 476.99266327 -41.41821289 475.92198181 C-41.04329356 473.68737551 -40.66619987 471.45313311 -40.28710938 469.21923065 C-39.68515427 465.66939334 -39.0899794 462.11847698 -38.49658203 458.56719971 C-36.80946566 448.47752367 -35.11063917 438.38983259 -33.40673828 428.30297852 C-32.36126821 422.11110002 -31.32382971 415.9179165 -30.29101562 409.7239151 C-29.89864542 407.38093449 -29.50320869 405.03846507 -29.10449219 402.69655609 C-19.10529945 343.95725191 -26.23199739 281.87389005 -60.77392578 231.85717773 C-62.68500707 229.20030862 -64.62462089 226.56653795 -66.57080078 223.93530273 C-69.80830647 219.54920828 -72.67671104 215.02335705 -75.50830078 210.37280273 C-83.47087834 197.41064523 -93.17326517 186.1263681 -103.69580078 175.18530273 C-104.16518066 174.69400879 -104.63456055 174.20271484 -105.11816406 173.6965332 C-120.1313158 158.05235582 -137.70955878 145.28695922 -156.85498047 135.16723633 C-158.53805647 134.26944698 -160.20024709 133.33278316 -161.85986328 132.39233398 C-177.32982023 124.00477668 -194.92811586 118.90683914 -212.07080078 115.24780273 C-213.36606689 114.96718994 -213.36606689 114.96718994 -214.6875 114.6809082 C-235.30966714 110.62166523 -256.31158843 110.87610049 -277.23048317 110.8686285 C-281.58395759 110.86488718 -285.93739536 110.84970918 -290.29084778 110.83601379 C-297.80918799 110.81388366 -305.32751492 110.79878536 -312.84588051 110.7886467 C-323.71578514 110.77397797 -334.58564343 110.74841897 -345.45552065 110.72031541 C-363.09688098 110.67499515 -380.73824803 110.63831977 -398.37963867 110.60717773 C-415.50302306 110.57693139 -432.62639105 110.54255346 -449.74975586 110.50268555 C-451.33653571 110.49899322 -451.33653571 110.49899322 -452.95537172 110.49522631 C-458.26301792 110.48285053 -463.57066393 110.47039422 -468.87830985 110.4578979 C-512.81745058 110.35455152 -556.7566117 110.26527576 -600.69580078 110.18530273 C-600.75625678 110.90200054 -600.81671278 111.61869834 -600.87900078 112.35711426 C-601.33194225 117.5570269 -601.84465255 122.70277141 -602.70700073 127.85377502 C-602.90597961 129.05452164 -603.1049585 130.25526825 -603.30996704 131.49240112 C-603.52607635 132.77108063 -603.74218567 134.04976013 -603.96484375 135.3671875 C-604.19692277 136.75824771 -604.42864246 138.1493679 -604.66003418 139.5405426 C-605.2846276 143.28952779 -605.91419308 147.03766233 -606.54469824 150.78565717 C-607.20820829 154.73518865 -607.86704185 158.6855002 -608.52639771 162.63572693 C-609.7768017 170.12264945 -611.03132961 177.60887472 -612.28737652 185.09485239 C-613.70561547 193.54867065 -615.11933733 202.00324217 -616.53262877 210.45788872 C-618.85630653 224.35829623 -621.18333769 238.25813855 -623.51325583 252.15750134 C-625.24672326 262.49911348 -626.97565771 272.84146594 -628.69580078 283.18530273 C-631.2619303 281.90223798 -631.31708247 281.03209212 -632.28955078 278.38061523 C-632.59231934 277.57906006 -632.89508789 276.77750488 -633.20703125 275.95166016 C-633.69647217 274.64418823 -633.69647217 274.64418823 -634.19580078 273.31030273 C-640.49344109 257.09118328 -648.72691777 242.40806152 -658.69580078 228.18530273 C-659.45566819 227.08947021 -660.21479924 225.99312666 -660.97314453 224.89624023 C-662.45435595 222.75642339 -663.94003617 220.61969298 -665.43017578 218.48608398 C-667.00250983 216.21682717 -668.52635282 213.92251613 -670.02392578 211.60327148 C-684.52600596 189.18155266 -702.82429178 168.65758395 -724.69580078 153.18530273 C-725.25444824 152.78230957 -725.8130957 152.37931641 -726.38867188 151.96411133 C-734.26217096 146.3236284 -742.5252652 141.47554502 -751.00830078 136.81030273 C-751.91515625 136.31022705 -752.82201172 135.81015137 -753.75634766 135.29492188 C-759.58846747 132.14649177 -765.48815987 129.50574417 -771.69580078 127.18530273 C-769.46139449 124.95089645 -768.29573728 124.61231281 -765.30175781 123.77172852 C-764.38100967 123.50981216 -763.46026154 123.24789581 -762.51161194 122.9780426 C-760.9979026 122.55856606 -760.9979026 122.55856606 -759.45361328 122.13061523 C-758.40076645 121.83336044 -757.34791962 121.53610565 -756.26316833 121.22984314 C-752.78426944 120.24978829 -749.30267813 119.27971842 -745.82080078 118.31030273 C-743.38443126 117.62760055 -740.94815288 116.94457303 -738.51196289 116.26123047 C-732.37209539 114.54169642 -726.22957319 112.83188332 -720.08575439 111.12652588 C-717.01503187 110.27393748 -713.94490976 109.41922991 -710.875 108.5637207 C-678.83399674 99.64524434 -646.63564173 91.32158065 -614.40289307 83.12799072 C-610.91589644 82.24127154 -607.42960192 81.35183643 -603.94335938 80.4621582 C-506.89453928 55.75376042 -408.08328959 37.06147579 -88.00830078 1.99780273 C-87.31678925 1.96078247 -86.62527771 1.92376221 -85.91281128 1.88562012 C-81.68402164 1.66349487 -77.45455291 1.46927227 -73.22363281 1.29244995 C-71.44761399 1.21716984 -69.67174364 1.13834371 -67.89599609 1.05691528 C-45.26865353 0.03528931 -22.64618038 -0.00226584 0 0 Z " fill="#FFFFFF" transform="translate(1903.69580078125,361.814697265625)"/>
<path d="M0 0 C1.42402817 3.88418546 0.65720797 7.40316673 -0.03442383 11.35766602 C-0.15888571 12.10748119 -0.28334759 12.85729637 -0.41158104 13.62983322 C-0.83569191 16.1725482 -1.27146078 18.71313106 -1.70703125 21.25390625 C-2.01896749 23.10959608 -2.33016815 24.96540969 -2.64070129 26.82133484 C-3.32408421 30.89582873 -4.01268473 34.96939646 -4.70513916 39.0423584 C-5.83063455 45.66266843 -6.94509303 52.28480812 -8.05810547 58.90722656 C-9.62591736 68.22985506 -11.19799927 77.55175364 -12.7728591 86.87319398 C-16.09026391 106.51036412 -19.38384689 126.15151525 -22.67578125 145.79296875 C-22.96497392 147.51833707 -23.2541693 149.24370493 -23.54336739 150.96907234 C-24.12344525 154.4298547 -24.70352217 157.89063722 -25.28359509 161.3514204 C-25.42736564 162.20917108 -25.5711362 163.06692176 -25.71926343 163.95066488 C-26.0098316 165.68425666 -26.30039209 167.41784972 -26.59094489 169.15144408 C-28.72525643 181.88585104 -30.8614715 194.61993732 -32.99926758 207.35375977 C-33.27343295 208.98688207 -33.54759748 210.62000451 -33.82176113 212.2531271 C-33.95625835 213.05428961 -34.09075556 213.85545212 -34.22932845 214.68089229 C-34.36296662 215.47693895 -34.49660479 216.27298562 -34.6342926 217.09315491 C-34.83338393 218.27908762 -34.83338393 218.27908762 -35.03649729 219.48897856 C-39.70914063 247.32296953 -44.37342965 275.15830528 -49 303 C-52 303 -52 303 -53.79003906 301.56640625 C-54.44198242 300.90511719 -55.09392578 300.24382812 -55.765625 299.5625 C-56.49136719 298.83160156 -57.21710938 298.10070312 -57.96484375 297.34765625 C-58.71894531 296.57292969 -59.47304688 295.79820312 -60.25 295 C-60.98863281 294.25621094 -61.72726562 293.51242187 -62.48828125 292.74609375 C-65.76562605 289.42250775 -68.9467928 286.06744732 -71.9777832 282.51782227 C-77.24445722 276.47231526 -82.9804537 270.8756719 -88.65234375 265.21484375 C-89.87885354 263.98765878 -91.10521498 262.76032553 -92.33143616 261.53285217 C-94.89080528 258.97201619 -97.45195493 256.41297829 -100.0144043 253.85522461 C-103.28010508 250.59522046 -106.54129475 247.33074635 -109.80115414 244.06490231 C-112.32938627 241.53303715 -114.86001939 239.00358256 -117.39135933 236.47482491 C-118.59403192 235.27281401 -119.79597709 234.07007481 -120.9971447 232.86655998 C-122.68309054 231.17804226 -124.37226458 229.49281716 -126.06225586 227.80834961 C-126.5461377 227.32244354 -127.03001953 226.83653748 -127.52856445 226.33590698 C-130.23739749 223.64325454 -133.0236376 221.08578716 -135.91294861 218.58705139 C-139.88210317 215.14399525 -143.62223898 211.51915226 -147.33056641 207.79882812 C-148.01460037 207.11654648 -148.69863434 206.43426483 -149.40339661 205.73130798 C-151.63862115 203.50044455 -153.87021501 201.26599081 -156.1015625 199.03125 C-157.66744652 197.4660406 -159.23347887 195.90097958 -160.7996521 194.33605957 C-164.07086143 191.06631937 -167.34026847 187.79479061 -170.60839844 184.52197266 C-174.78547755 180.33919202 -178.96703685 176.16092366 -183.14995766 171.9839859 C-186.38091309 168.75665325 -189.60947158 165.52693119 -192.83732224 162.29649353 C-194.37787986 160.75527163 -195.9191729 159.21478445 -197.46123123 157.67506409 C-199.61933197 155.51951863 -201.77417472 153.36076635 -203.92822266 151.20117188 C-204.55798508 150.57343369 -205.1877475 149.9456955 -205.83659363 149.29893494 C-208.78616983 146.33535873 -211.68982743 143.32969723 -214.50448608 140.23742676 C-215.00915091 139.68752327 -215.51381573 139.13761978 -216.03377342 138.57105255 C-216.35262819 138.05260521 -216.67148296 137.53415787 -217 137 C-215.59764921 132.79294764 -212.55731863 131.39910377 -209 129.0625 C-207.70712284 128.20103269 -206.41554071 127.33761982 -205.125 126.47265625 C-204.36147217 125.96114014 -203.59794434 125.44962402 -202.8112793 124.92260742 C-199.94556039 122.96276926 -197.11335266 120.96105207 -194.28361511 118.9498291 C-184.21204208 111.79245793 -173.98085516 104.89588909 -163.6875 98.0625 C-161.95276282 96.90874653 -160.21806261 95.75493746 -158.48339844 94.60107422 C-147.03721449 86.99267842 -135.57826539 79.40644821 -124 72 C-123.27748047 71.53625977 -122.55496094 71.07251953 -121.81054688 70.59472656 C-82.27201977 45.25616916 -41.41082568 22.12032082 0 0 Z " fill="#FFFFFF" transform="translate(674,669)"/>
<path d="M0 0 C6.51033938 -0.0765439 13.02056118 -0.12880571 19.53125 -0.16479492 C21.74255714 -0.17981037 23.95383485 -0.20022891 26.16503906 -0.22631836 C29.35749609 -0.26302154 32.54955675 -0.2797993 35.7421875 -0.29296875 C36.71864227 -0.30845261 37.69509705 -0.32393646 38.70114136 -0.33988953 C51.92929446 -0.34307751 63.51692886 4.72766377 73 14 C83.40313975 26.57522388 84.93504025 38.23052212 84 54 C83.33238681 60.65208344 82.08348989 67.21139556 80.87109375 73.78125 C80.52899297 75.70534745 80.18840675 77.62971468 79.84918213 79.55432129 C78.92418321 84.77940125 77.97950936 90.00074561 77.0310936 95.22161865 C76.02423082 100.78246056 75.03472869 106.34638754 74.04418945 111.91015625 C72.76407007 119.09613763 71.48254391 126.28185151 70.19389343 133.46630859 C66.94453973 151.59678136 63.77585162 169.74029452 60.63999748 187.89070129 C59.86267713 192.38881822 59.08310557 196.88654291 58.3028717 201.38415527 C58.17470513 202.12302145 58.04653855 202.86188762 57.91448814 203.62314367 C57.39841675 206.59800117 56.88226936 209.57284545 56.36594975 212.54765987 C54.96577978 220.61506722 53.56879505 228.68299234 52.18185425 236.75268555 C51.10140691 243.03861789 50.01266624 249.32305009 48.91399634 255.60582399 C48.34999551 258.83268395 47.79110635 262.06028219 47.2400589 265.28938293 C40.44833065 305.05288688 40.44833065 305.05288688 27.83203125 314.90625 C20.1742607 319.47805331 11.52731448 321.13179941 2.71923828 321.11352539 C1.4984256 321.11344986 0.27761292 321.11337433 -0.98019409 321.11329651 C-2.28352692 321.10813522 -3.58685974 321.10297394 -4.9296875 321.09765625 C-6.28874662 321.09578901 -7.64780642 321.09436655 -9.00686646 321.09336853 C-12.56768686 321.08956748 -16.12846587 321.07975802 -19.68927002 321.06866455 C-23.32929932 321.05839835 -26.96933537 321.05385979 -30.609375 321.04882812 C-37.73960063 321.03813339 -44.86979603 321.02068332 -52 321 C-51.41406841 312.20111712 -50.25044685 303.58594846 -48.81030273 294.8894043 C-48.58628924 293.51569968 -48.36268402 292.14192844 -48.13945007 290.76809692 C-47.53579047 287.06052197 -46.92635858 283.35391746 -46.31576037 279.64747977 C-45.66765941 275.70755511 -45.02472809 271.76678651 -44.38111877 267.8261261 C-43.29391177 261.17401429 -42.20320882 254.52248353 -41.11010742 247.87133789 C-39.73305046 239.49232598 -38.36155461 231.11241463 -36.99193382 222.73218441 C-32.05147582 192.50353808 -27.08790613 162.27989212 -21.91221619 132.09048462 C-17.71120182 107.5666674 -13.68893413 83.0129154 -9.64300537 58.46313477 C-8.65910095 52.49451932 -7.67405606 46.5260922 -6.68901634 40.55766404 C-4.4578515 27.03868872 -2.22832127 13.51944429 0 0 Z " fill="#000000" transform="translate(1524,659)"/>
<path d="M0 0 C0.84304688 0.75023437 1.68609375 1.50046875 2.5546875 2.2734375 C17.01828672 15.85779056 24.78200136 34.08259306 26.28515625 53.7265625 C26.77891406 74.12090698 20.94964067 92.20143838 8 108 C7.45859375 108.70382812 6.9171875 109.40765625 6.359375 110.1328125 C-5.62935 124.97322452 -24.40474402 133.43047372 -43 136 C-65.7864707 137.48713517 -87.2222223 131.49123716 -104.6875 116.3125 C-119.74964256 101.92219401 -129.04101346 83.26175766 -130.203125 62.34375 C-130.49138716 38.70625273 -123.08558842 19.56012526 -106.875 2.375 C-95.26391358 -8.85118853 -81.03327264 -16.37801744 -65 -19 C-64.35546875 -19.12246094 -63.7109375 -19.24492188 -63.046875 -19.37109375 C-40.38101523 -22.87478581 -16.82262041 -15.26805482 0 0 Z " fill="#FFFFFF" transform="translate(2006,1039)"/>
<path d="M0 0 C2.11598104 -0.00957024 4.23093268 -0.04050957 6.34667969 -0.07226562 C14.32118497 -0.13391022 21.7442177 0.33981038 29.28417969 3.24023438 C30.28417969 4.24023438 30.28417969 4.24023438 30.50788879 7.82601929 C30.41831214 14.93884991 28.96508454 21.88987714 27.70483398 28.86767578 C27.42645448 30.44152283 27.14875851 32.01549092 26.87168884 33.58956909 C26.11751331 37.86296617 25.35385437 42.13462007 24.58855414 46.40603685 C23.77656083 50.94793679 22.97359053 55.49143179 22.16963196 60.03475952 C20.63409066 68.70470379 19.09083232 77.37325533 17.5446623 86.04130971 C15.4937039 97.54118876 13.45318902 109.04291841 11.41265321 120.54465055 C10.91187166 123.367319 10.41104616 126.18997964 9.91018677 129.01263428 C9.74570482 129.9396212 9.58122288 130.86660812 9.41175663 131.82168555 C8.41996287 137.409665 7.42610545 142.997273 6.43055308 148.584584 C3.37346723 165.74180766 0.32597399 182.90005884 -2.61864865 200.07699609 C-3.00482689 202.32870794 -3.3920118 204.5802443 -3.77954006 206.83172417 C-4.02851742 208.27879376 -4.27747535 209.72586669 -4.52641296 211.17294312 C-4.64676137 211.87245932 -4.76710978 212.57197553 -4.89110512 213.2926892 C-5.46964241 216.65991892 -6.04461397 220.02768381 -6.61147499 223.39690018 C-7.22388594 227.03134132 -7.84629384 230.66394885 -8.47045898 234.29638672 C-8.64056425 235.32644711 -8.81066952 236.35650749 -8.98592949 237.41778183 C-13.03647661 260.74596757 -13.03647661 260.74596757 -19.71582031 266.24023438 C-27.75572038 270.4314538 -35.50797213 270.74995257 -44.40332031 270.49023438 C-45.59376953 270.4721875 -46.78421875 270.45414063 -48.01074219 270.43554688 C-50.91335805 270.38891851 -53.81398219 270.31986817 -56.71582031 270.24023438 C-56.12445351 258.69352846 -54.06317202 247.36690039 -52.17749023 235.9777832 C-51.80904749 233.73095742 -51.44102188 231.48406321 -51.07337952 229.23710632 C-50.07739309 223.15712574 -49.07563354 217.07810904 -48.07284713 210.99924684 C-47.01958876 204.60802987 -45.9717884 198.21591824 -44.92341614 191.82389832 C-43.16019157 181.07782434 -41.39375793 170.33228255 -39.62475586 159.5871582 C-37.81390911 148.58779991 -36.00471806 137.5881717 -34.19799805 126.58813477 C-34.08701655 125.91243955 -33.97603506 125.23674434 -33.86169048 124.54057351 C-33.08316467 119.80050042 -32.30474994 115.06040909 -31.52636719 110.3203125 C-30.65606382 105.02047704 -29.78573435 99.72064586 -28.9153595 94.42082214 C-28.59826089 92.4899391 -28.59826089 92.4899391 -28.27475625 90.52004832 C-27.03004893 82.94167341 -25.78424791 75.36347932 -24.53737104 67.78546107 C-23.75573087 63.03486272 -22.97446438 58.28420295 -22.19321251 53.53354073 C-21.83548943 51.35898386 -21.47757929 49.18445775 -21.11944962 47.0099678 C-20.62337913 43.99788212 -20.12799045 40.98568496 -19.63273621 37.97346497 C-19.47613254 37.02338896 -19.31952887 36.07331296 -19.15817964 35.09444678 C-18.2901345 29.8100049 -17.44376768 24.52275556 -16.61812782 19.23151207 C-16.43669112 18.0750709 -16.25525441 16.91862974 -16.06831962 15.7271449 C-15.71734884 13.48463837 -15.36978968 11.24159465 -15.02601165 8.99797422 C-14.86907137 7.99703959 -14.7121311 6.99610496 -14.55043507 5.96483898 C-14.41308502 5.07511369 -14.27573497 4.1853884 -14.13422281 3.26870173 C-13.02018318 -2.13230101 -4.53945782 0.01239724 0 0 Z " fill="#FFFFFF" transform="translate(1565.7158203125,696.759765625)"/>
<path d="M0 0 C0.84304688 0.75023437 1.68609375 1.50046875 2.5546875 2.2734375 C17.01828672 15.85779056 24.78200136 34.08259306 26.28515625 53.7265625 C26.77891406 74.12090698 20.94964067 92.20143838 8 108 C7.45859375 108.70382812 6.9171875 109.40765625 6.359375 110.1328125 C-5.62935 124.97322452 -24.40474402 133.43047372 -43 136 C-65.7864707 137.48713517 -87.2222223 131.49123716 -104.6875 116.3125 C-119.74964256 101.92219401 -129.04101346 83.26175766 -130.203125 62.34375 C-130.49138716 38.70625273 -123.08558842 19.56012526 -106.875 2.375 C-95.26391358 -8.85118853 -81.03327264 -16.37801744 -65 -19 C-64.35546875 -19.12246094 -63.7109375 -19.24492188 -63.046875 -19.37109375 C-40.38101523 -22.87478581 -16.82262041 -15.26805482 0 0 Z M-98 12 C-98.62003906 12.58910156 -99.24007813 13.17820312 -99.87890625 13.78515625 C-111.99299729 26.11605429 -116.53124582 43.66216319 -116.42016602 60.42895508 C-115.89410367 78.28986412 -108.47675003 94.23219048 -96 107 C-81.09340699 120.09170002 -64.65913656 125.18454918 -45.08007812 124.15966797 C-30.2163278 123.01871812 -17.22490937 115.49304511 -7 105 C-6.30390625 104.33613281 -5.6078125 103.67226562 -4.890625 102.98828125 C7.36499025 90.51890527 12.54049936 73.40637317 12.42016602 56.28344727 C11.81803121 36.87469945 3.8347508 21.36311157 -10 8 C-22.0687172 -3.23061184 -38.52983413 -8.83825967 -54.953125 -8.2734375 C-71.81086577 -6.76056333 -86.2793561 -0.24447156 -98 12 Z " fill="#000000" transform="translate(2006,1039)"/>
<path d="M0 0 C32.01 0 64.02 0 97 0 C88.66177571 8.33822429 80.06567635 16.27860914 70.8671875 23.6640625 C67.58421485 26.33874594 64.38736412 29.10207847 61.1875 31.875 C54.85635178 37.34017254 48.34277948 42.53255938 41.73242188 47.65429688 C39.46477681 49.41574834 37.20934037 51.19243645 34.95410156 52.96972656 C27.55756078 58.79794637 20.12524098 64.57997418 12.6875 70.35546875 C9.4739783 72.85149328 6.26637368 75.35488567 3.0625 77.86328125 C2.25651367 78.49322998 1.45052734 79.12317871 0.62011719 79.7722168 C-0.91700432 80.97382528 -2.45288917 82.17701805 -3.98730469 83.38208008 C-7.89410512 86.43263858 -11.83346292 89.31402484 -16 92 C-15.39079042 86.14703423 -14.62677032 80.37058895 -13.6171875 74.57446289 C-13.48209778 73.78632202 -13.34700806 72.99818115 -13.20782471 72.18615723 C-12.76626169 69.61451489 -12.32079985 67.04356723 -11.875 64.47265625 C-11.56479794 62.67429537 -11.25474168 60.87590934 -10.94482422 59.07749939 C-10.2976788 55.32601421 -9.6485523 51.57487858 -8.99804688 47.82397461 C-8.16344887 43.01041735 -7.33419656 38.19595662 -6.50643921 33.38121891 C-5.86873307 29.67576754 -5.22805768 25.97083433 -4.58648682 22.26605034 C-4.27931813 20.48994952 -3.97312189 18.71368024 -3.66790771 16.93724251 C-3.24258919 14.46421407 -2.81324427 11.99191824 -2.3828125 9.51977539 C-2.25706848 8.78369553 -2.13132446 8.04761566 -2.00177002 7.28923035 C-1.11423808 2.22847616 -1.11423808 2.22847616 0 0 Z " fill="#FFFFFF" transform="translate(1473,1195)"/>
<path d="M0 0 C51.03771552 0 51.03771552 0 59.52734375 8.1484375 C64.2599263 14.09868718 65.64970672 20.86079477 65.3125 28.33203125 C64.48617361 35.38679276 62.4657682 40.60759607 57.18359375 45.4921875 C53.17100368 48.26295631 48.64913411 49.64645463 44 51 C49.64432168 61.24273072 55.78462601 71.13741474 62.07055664 80.99804688 C62.70727295 82.00416016 63.34398926 83.01027344 64 84.046875 C64.5775 84.95276367 65.155 85.85865234 65.75 86.79199219 C67 89 67 89 67 91 C61.53113261 92.61694502 56.28855012 93.65404951 51 91 C45.14079118 84.74182577 41.45926559 76.63628574 37.59326172 69.06054688 C35.61286897 65.25634776 33.39582157 61.65682876 31.0625 58.0625 C28 53.23142251 28 53.23142251 28 51 C23.05 51 18.1 51 13 51 C13 64.2 13 77.4 13 91 C8.71 91 4.42 91 0 91 C0 60.97 0 30.94 0 0 Z " fill="#000000" transform="translate(1925,1052)"/>
<path d="M0 0 C6.4659375 -0.0928125 6.4659375 -0.0928125 13.0625 -0.1875 C14.40836182 -0.21481201 15.75422363 -0.24212402 17.14086914 -0.27026367 C24.90963832 -0.32421749 29.84472393 0.26626574 36.375 4.5625 C38.96028641 8.44042962 39.17445741 12.40595479 39 17 C37.35387556 22.22886588 34.79945988 24.45910948 30 27 C26.01288263 27.84309846 22.23227563 28.11952836 18.1640625 28.09765625 C17.2045166 28.09515869 16.2449707 28.09266113 15.25634766 28.09008789 C14.05800293 28.08098389 12.8596582 28.07187988 11.625 28.0625 C7.78875 28.041875 3.9525 28.02125 0 28 C0 18.76 0 9.52 0 0 Z " fill="#FFFFFF" transform="translate(1938,1064)"/>
</svg>
